<?xml version="1.0" encoding="UTF-8"?><svg id="Layer_1" xmlns="http://www.w3.org/2000/svg" viewBox="0 0 640 640"><path d="M376.95,367.72c0,11.59,1.26,13.61,9.83,19.15,1.51,1.01,3.53,1.26,5.54,1.26,2.27,0,6.05-4.03,7.81-5.8,1.01-.76,4.03,1.01,3.28,2.02-7.31,9.58-17.39,20.66-26.46,28.73-14.62-6.8-25.2-20.16-27.22-20.16s-21.92,16.13-25.7,18.65c-30.74-9.58-38.3-11.84-54.43-11.84-13.86,0-18.4,2.77-29.99,19.4-.76,0-3.78-3.28-3.02-4.28,22.43-29.48,28.73-37.8,56.45-76.61-17.14-6.55-23.44-10.33-33.77-19.91-12.35-11.59-19.4-25.45-19.4-38.81,0-31.75,29.74-53.42,73.33-53.42,16.88,0,34.27,3.28,52.42,13.61,4.03-7.81,9.32-13.36,15.37-15.88-3.02,15.37-4.03,75.6-4.03,90.72v53.17ZM295.05,244.75c-26.71,0-47.88,16.13-47.88,36.29,0,11.84,6.8,24.95,18.65,35.28,9.07,7.81,15.12,11.09,30.74,16.63,11.59-14.87,46.62-62.5,46.62-66.02,0-1.76-1.26-3.28-5.04-6.3-14.87-11.09-27.97-15.88-43.09-15.88ZM348.73,343.53l-12.35.25c-13.61.25-26.46,0-38.05-4.03-6.55,9.07-11.84,16.63-19.4,25.96-9.83,12.35-14.62,19.66-14.62,21.67,0,.76.25,1.26.76,1.26,2.27,0,4.28-.5,6.8-1.01,10.33-2.27,18.9-3.28,29.99-3.28,10.08,0,24.44,1.26,38.81,3.28,2.77.25,5.29.76,5.8.76,1.51,0,2.27-1.26,2.27-4.03v-40.82ZM354.78,267.68c1.26-2.27,1.51-2.52,1.51-3.53,0-.76-.5-1.51-1.26-1.51-2.27,0-6.3,5.54-25.45,34.02-5.8,8.57-14.62,20.92-26.71,37.3,7.81,1.76,15.62,2.52,24.19,2.52,7.06,0,15.37-.76,21.67-1.76.5-41.08.5-56.45,6.05-67.03Z"/></svg>