<?xml version="1.0" encoding="UTF-8"?><svg id="Layer_1" xmlns="http://www.w3.org/2000/svg" viewBox="0 0 640 640"><path d="M255.97,410.06h-13.46l-4.18-1.39,1.62-4.41,16.01,5.8ZM244.6,392.19l26.22,9.28-1.62,4.41-26.22-9.51,1.62-4.18ZM249.47,379.9l25.52,9.28-1.39,4.41-25.98-9.28,1.86-4.41ZM254.11,367.83l25.29,9.05-1.62,4.41-25.29-9.05,1.62-4.41ZM258.75,355.54l24.82,9.05-1.39,4.41-25.06-9.05,1.62-4.41ZM263.39,343.24l24.59,9.05-1.62,4.41-24.59-9.05,1.62-4.41ZM268.03,331.41l24.13,8.58-1.39,4.41-24.36-8.82,1.62-4.18ZM272.67,319.12l23.9,8.58-1.62,4.41-23.9-8.58,1.62-4.41ZM277.31,306.82l23.66,8.58-1.62,4.41-23.66-8.58,1.62-4.41ZM281.95,294.76l23.2,8.35-1.39,4.41-23.43-8.58,1.62-4.18ZM286.59,282.46l22.97,8.35-1.62,4.41-22.97-8.35,1.62-4.41ZM291.23,270.4l22.74,8.12-1.62,4.41-22.74-8.35,1.62-4.18ZM296.1,258.1l22.27,8.12-1.62,4.41-22.5-8.12,1.86-4.41ZM297.5,340.23l4.64-13.22v21.11h-4.64v-7.89ZM300.74,246.04l21.81,7.89-1.39,4.41-22.04-7.89,1.62-4.41ZM305.38,233.74l21.58,7.89-1.62,4.41-21.58-7.89,1.62-4.41ZM312.34,322.36h4.64v25.75h-4.64v-25.75ZM326.73,227.71l4.64,1.86-1.62,4.18-16.24-6.03h13.22ZM323.48,269.93l23.66-8.58,1.62,4.18-23.66,8.82-1.62-4.41ZM327.89,254.16l14.62-5.34,1.62,4.41-18.33,6.5,2.09-5.57ZM327.19,322.36h4.64v25.75h-4.64v-25.75ZM327.89,282.46l23.9-8.82,1.62,4.41-23.9,8.82-1.62-4.41ZM333.46,237.92l4.64-1.62,1.62,4.41-8.35,3.02,2.09-5.8ZM332.3,294.99l24.13-8.82,1.62,4.41-24.36,8.82-1.39-4.41ZM336.47,307.52l24.59-8.82,1.62,4.41-24.59,8.82-1.62-4.41ZM342.04,322.36h4.64v25.75h-4.64v-25.75ZM347.14,317.72l18.33-6.5,1.62,4.41-6.03,2.09h-13.92ZM381.01,352.75l.46,1.16-25.52,9.28-1.39-4.41,16.7-6.03h9.74ZM356.89,322.36h4.64v25.75h-4.64v-25.75ZM359.21,372.47l25.75-9.28,1.62,4.41-25.75,9.28-1.62-4.41ZM364.08,385.93l25.98-9.05,1.62,4.18-26.22,9.28-1.39-4.41ZM368.72,399.62l26.22-9.28,1.62,4.18-26.22,9.51-1.62-4.41ZM371.73,327.47l4.64,12.53v8.12h-4.64v-20.65ZM382.64,410.06l17.4-6.26,1.62,4.41-5.57,1.86h-13.46Z"/></svg>