<?xml version="1.0" encoding="UTF-8"?><svg id="Layer_1" xmlns="http://www.w3.org/2000/svg" viewBox="0 0 640 640"><path d="M312.46,227.71l-68.9,182.35h-5.8l69.83-182.35h4.87ZM322.2,227.71l-66.58,182.35h-6.03l67.74-182.35h4.87ZM396.21,410.06l-22.74-61.94h-5.8l22.5,61.94h-6.03l-22.27-61.94h-5.57l21.81,61.94h-5.8l-21.58-61.94h-61.25l-21.81,61.94h-6.03l65.42-182.35h7.66l36.89,99.99h-74.7l-1.86,5.1h78.41l1.86,5.1h-82.13l-1.86,5.1h85.84l25.06,67.05h-6.03ZM320.35,261.35l-21.58,61.01h42.92l-21.34-61.01ZM352.83,322.36l-27.38-75.63-2.55,7.19,24.36,68.44h5.57ZM358.4,322.36h5.57l-33.18-90.71-2.55,7.42,30.16,83.29Z"/></svg>