<?xml version="1.0" encoding="UTF-8"?><svg id="Layer_1" xmlns="http://www.w3.org/2000/svg" viewBox="0 0 640 640"><path d="M198.32,370.85v-.23h40.83v.23c0,1.86.7,3.48,1.86,4.64h-42.46c0-1.39-.23-3.02-.23-4.64ZM199.25,361.34h110.43c1.16,1.39,2.32,3.02,3.25,4.64h-62.87c-1.16-.93-2.78-1.62-4.41-1.62s-3.25.7-4.41,1.62h-42.69l.7-4.64ZM199.25,379.67h79.34c-.93,1.16-1.39,2.78-1.39,4.18v.93h-76.79c-.46-1.62-.93-3.25-1.16-5.1ZM202.03,352.29h235.94l1.39,4.41h-238.72l1.39-4.41ZM287.64,388.95h29.93c-.23,1.86-.7,3.71-1.16,5.34h-111.82c-.93-1.62-1.86-3.48-2.55-5.34h77.49c1.16.93,2.55,1.39,4.18,1.39,1.39,0,2.78-.46,3.94-1.39ZM207.37,343.01h225.27l2.78,4.18h-230.83l2.78-4.18ZM206.9,397.99h108.11c-.93,2.09-2.09,3.94-3.25,5.57h-100.22c-1.62-1.62-3.25-3.48-4.64-5.57ZM215.95,333.96h207.87l4.41,3.94h-216.68l4.41-3.94ZM215.49,407.27h93.26c-2.09,2.32-4.64,4.18-7.19,5.8h-77.49c-3.02-1.62-6.03-3.48-8.58-5.8ZM383.45,324.68h21.11c3.71.93,7.19,2.09,10.67,3.71h-190.7c3.48-1.62,6.96-2.78,10.67-3.71h20.88c3.02.7,5.1,1.39,5.1,1.39l.46-1.39h117.39l.46,1.16s1.62-.46,3.94-1.16ZM232.42,416.32h26.45c-3.71.93-8.12,1.86-13.22,1.86-4.64,0-9.05-.7-13.22-1.86ZM316.87,375.49h-66.81c1.39-1.16,2.09-2.78,2.09-4.64v-.23h63.1c.7,1.62,1.16,3.25,1.62,4.87ZM265.13,315.64h44.31l-1.39,3.48h-44.31l1.39-3.48ZM268.61,306.36h44.08l-1.16,3.25h-44.08l1.16-3.25ZM272.09,297.31h43.61l-.93,3.02h-43.85l1.16-3.02ZM272.56,416.32h22.27c-3.48,1.16-7.42,1.86-11.14,1.86-4.41,0-8.12-.93-11.14-1.86ZM315.01,262.74h-42.22c.23-.7.23-1.39.23-2.09h45.24c-1.16.46-2.32,1.16-3.25,2.09ZM272.79,269.7h41.3c.46.93,1.16,1.86,1.86,2.32h-42.92c-.23-.7-.23-1.39-.23-2.32ZM365.35,281.53h-90.25l-.7-2.55h91.64l-.7,2.55ZM275.34,251.37h89.55l.7,1.86h-90.94l.7-1.86ZM275.57,288.03h43.61l-1.16,2.78h-43.38l.93-2.78ZM361.64,243.95h-83.05c.46-.46.7-.93.93-1.62h81.2c.23.7.7,1.16.93,1.62ZM354.68,234.44h-69.13l1.39-1.39h66.35l1.39,1.39ZM318.03,384.77h-27.84v-.93c0-1.39-.7-3.02-1.62-4.18h29.23c0,1.39.23,2.78.23,4.18v.93ZM342.39,225.16h-44.77l2.32-1.16h40.37c.7.46,1.39.93,2.09,1.16ZM321.04,288.03h44.31l1.16,2.78h-44.54l-.93-2.78ZM321.97,260.65h45.24c0,.7.23,1.39.23,2.09h-42.22c-.7-.93-2.09-1.62-3.25-2.09ZM322.2,379.67h29c-.93,1.16-1.39,2.78-1.39,4.18v.93h-27.84v-.93c0-1.39,0-2.78.23-4.18ZM360.25,388.95h77.72c-.7,1.86-1.62,3.71-2.55,5.34h-111.82c-.7-1.62-1.16-3.48-1.39-5.34h29.93c1.16.93,2.55,1.39,4.18,1.39,1.39,0,2.78-.46,3.94-1.39ZM324.52,370.62h63.1v.23c0,1.86.7,3.48,1.86,4.64h-66.58c.46-1.62.93-3.25,1.62-4.87ZM367.44,272.02h-43.15c.93-.46,1.39-1.39,1.86-2.32h41.53c0,.93-.23,1.62-.23,2.32ZM324.29,297.31h44.54l1.16,3.02h-44.77l-.93-3.02ZM324.99,397.99h108.11c-1.39,2.09-3.02,3.94-4.64,5.57h-100.45c-1.16-1.62-2.09-3.48-3.02-5.57ZM330.32,361.34h110.43l.7,4.64h-42.92c-1.16-.93-2.78-1.62-4.41-1.62s-3.25.7-4.41,1.62h-62.87c1.16-1.62,2.09-3.02,3.48-4.64ZM327.31,306.36h45.01l1.16,3.25h-45.01l-1.16-3.25ZM330.56,315.64h45.01l1.39,3.48h-45.01l-1.39-3.48ZM331.02,407.27h93.49c-2.78,2.32-5.8,4.18-8.82,5.8h-77.49c-2.55-1.62-5.1-3.48-7.19-5.8ZM344.94,416.32h22.5c-3.02.93-6.73,1.86-11.14,1.86-3.94,0-7.66-.7-11.37-1.86ZM439.59,384.77h-76.79v-.93c0-1.39-.7-3.02-1.62-4.18h79.57c-.23,1.86-.7,3.48-1.16,5.1ZM380.67,416.32h26.68c-4.18,1.16-8.58,1.86-13.22,1.86-5.34,0-9.98-.93-13.46-1.86ZM441.45,375.49h-42.92c1.39-1.16,2.09-2.78,2.09-4.64v-.23h41.06v.23c0,1.62-.23,3.25-.23,4.64Z"/></svg>