<?xml version="1.0" encoding="UTF-8"?><svg id="Layer_1" xmlns="http://www.w3.org/2000/svg" viewBox="0 0 640 640"><path d="M363.25,408.38c9.11,0,18.41-2.6,24.18-7.44,4.09-3.16,6.14-5.02,8.18-6.88.74-.56,2.05-2.23,2.79-1.49.56.56-.19,1.3-.74,1.86-2.6,2.42-6.14,5.95-10.6,9.49-7.81,6.51-17.67,9.49-28.09,9.49-7.25,0-12.65-2.42-16-2.42-3.91.93-10.04,1.67-13.76,1.67-3.16,0-8-.56-8-3.91,0-4.09,14.88-1.3,22.32-1.3,1.67-.74,4.65-2.05,7.63-3.91,13.58-9.3,28.83-26.97,42.59-49.66,12.46-21.02,21.02-35.15,31.62-51.15-10.04,1.3-19.53,2.05-26.97,2.05-13.95,14.51-24.74,25.48-39.62,40.36,16.93,4.46,27.71,10.97,28.65,15.81v.19c-3.53-3.91-15.81-8.74-31.44-12.65-42.97,43.15-88.17,76.08-160.71,78.87-9.86.37-19.72,0-29.02-1.49,1.12,39.62,42.78,59.71,85.38,61.01,53.38,1.67,93.93-21.76,93.56-43.71-.19-4.09-.93-8.56-4.09-12.09-1.3-1.3-2.05-1.3-1.67-2.05.19-.56,1.67,0,2.79.93,4.84,4.09,7.25,9.67,7.44,14.51.56,22.13-43.9,46.13-98.02,44.46-44.27-1.67-86.86-19.16-87.24-63.43-34.97-5.77-62.13-25.3-62.13-60.82,0-49.29,60.08-84.26,118.86-84.26,39.62,0,79.05,15.25,79.05,45.57,0,4.46-.93,8.93-2.23,13.02,2.79-.19,7.07-.37,10.42-.37,15.25,0,29.39,1.67,41.29,4.09,14.69-13.95,22.88-22.32,38.5-37.95-39.99-.93-83.33-14.32-83.33-47.25,0-22.69,22.69-36.08,45.76-36.08,16,0,30.69,5.95,35.71,16.55,1.49,3.16,1.49,6.32.56,6.32-.56.19,0-1.49-2.05-5.58-4.84-10.04-19.53-15.07-34.22-14.88-21.58.37-41.29,13.02-41.29,34.22,0,31.25,41.85,44.08,80.35,45.01,22.13-23.25,49.48-47.99,71.43-60.45,15.07-8.74,35.9-18.79,57.48-18.23,11.72.37,19.16,5.95,19.16,15.25,0,11.9-13.39,29.39-48.36,45.57-16.93,7.81-35.15,12.65-51.9,15.62-12.09,19.34-23.06,39.06-35.53,57.48-13.21,19.53-30.88,36.64-48.73,46.87-1.67.93-3.91,2.05-5.95,2.6,3.91.37,10.42.56,16,.56ZM220.95,288.04c-56.73,0-116.62,29.95-116.62,76.45,0,33.48,26.23,52.08,60.08,58.03.56-15.62,7.07-29.39,17.86-41.11-14.32-5.21-23.99-14.69-24.92-25.85-.37-6.14,2.23-9.49,3.16-8.74.56.37-2.05,2.79-1.49,8.37,1.49,11.35,12.28,19.34,26.23,23.44,23.44-23.25,64.54-37.57,110.49-39.62,1.67-4.28,2.6-8.37,2.6-13.02,0-27.9-40.36-37.94-77.19-37.94h-.19ZM306.89,342.17c-3.16,0-6.51,0-9.86.19-11.16,26.41-48.92,43.71-85.75,43.71-9.67,0-18.79-1.3-26.41-3.91-11.35,11.16-17.86,24.92-18.41,40.36,9.3,1.67,19.16,2.23,29.02,1.67,61.94-2.6,107.7-35.15,151.22-77.75-12.65-2.6-26.78-4.28-39.62-4.28h-.19ZM207,381.41c35.71,0,74.59-15.25,87.05-38.88-43.52,2.05-83.33,14.88-106.58,36.64,6.14,1.3,12.83,2.23,19.53,2.23ZM505.54,230.38c4.65,0,7.63,1.3,7.07,2.23-.56,1.12-1.12-.56-6.32-.56-10.97,0-24.55,7.81-37.76,23.62-8,9.49-19.16,25.85-29.76,42.6,15.62-3.35,33.11-8.56,49.48-16.37,35.34-17.11,47.25-31.99,47.25-42.22,0-7.81-7.07-13.21-16.93-13.39-20.83-.37-42.97,10.04-56.36,19.16-20.27,13.39-31.43,23.81-62.68,57.48,7.63-.19,17.11-1.12,26.79-2.6,10.23-15.25,24.55-32.92,37.2-46.13,13.76-14.14,30.13-23.81,41.85-23.81h.19Z"/></svg>