<?xml version="1.0" encoding="UTF-8"?><svg id="Layer_1" xmlns="http://www.w3.org/2000/svg" viewBox="0 0 640 640"><path d="M393.69,313.74c0,16.21-14.04,27.1-14.04,37.27,0,11.37,17.18,19.6,17.18,36.54,0,13.55-9.92,25.17-24.68,25.17-10.89,0-18.88-6.53-19.6-14.76-1.69-20.57,14.28-23.96,14.28-47.19,0-7.26-5.32-13.31-11.62-13.31-8.23,0-10.65,10.65-19.12,10.65-6.05,0-10.65-5.32-11.13-13.79h-32.91c3.63,11.13,23.72,6.53,23.72,20.81s-15.97,6.29-15.97,26.86c0,26.86-20.57,29.77-30.25,29.77-8.95,0-26.38-2.9-26.38-18.88,0-23.23,39.21-7.02,39.21-28.56s-32.19-15-32.19-34.12,15.97-12.83,19.36-28.07c2.9-12.58-5.08-13.31-4.6-22.75,0-8.71,7.5-15.73,16.7-15.73,6.29,0,12.58.24,15-11.62,3.15-14.04,13.31-26.38,28.31-26.38,45.74,0,5.08,71.15,44.77,69.21,16.94-.73,23.96,7.74,23.96,18.88ZM303.67,304.06h27.35c8.23-12.58,12.83-54.69-10.65-54.69-21.78,0-24.44,40.9-16.7,54.69Z"/></svg>