<?xml version="1.0" encoding="UTF-8"?><svg id="Layer_1" xmlns="http://www.w3.org/2000/svg" viewBox="0 0 640 640"><path d="M317.38,348.53h-13.06c-9.36,0-15.56.24-18.62.73s-4.99,1.34-5.8,2.56c-.57.73-1.24,1.91-2.01,3.54-.77,1.63-2.06,4.76-3.85,9.4-.33.9-.81,2.16-1.46,3.78-3.66,9.03-5.49,14.85-5.49,17.46,0,2.2.57,3.99,1.71,5.37,1.14,1.38,2.97,2.52,5.49,3.42.89.33,2.08.73,3.54,1.22,5.37,1.87,8.06,3.99,8.06,6.35,0,3.01-2.26,5.21-6.77,6.59s-11.94,2.08-22.28,2.08-17.6-.67-22.03-2.01c-4.44-1.34-6.65-3.56-6.65-6.65,0-2.44,2.69-4.47,8.06-6.1,2.52-.73,4.39-1.38,5.62-1.95,3.99-2.52,8.95-10.99,14.89-25.39l.61-1.59c5.53-13.43,12.98-31.33,22.34-53.71,20.02-48.1,30.6-74.71,31.74-79.83.08-.49.24-1.26.49-2.32.81-3.91,3.46-5.86,7.93-5.86,2.69,0,4.8.59,6.35,1.77,1.54,1.18,3.46,4.25,5.74,9.22,9.28,20.51,22.38,52.37,39.31,95.58,7.97,20.35,14,35.6,18.07,45.78.32.73.69,1.63,1.1,2.69,3.09,7.65,6.27,12.37,9.52,14.16.89.49,2.48,1.1,4.76,1.83,4.8,1.55,7.2,3.54,7.2,5.98,0,2.85-2.56,4.96-7.69,6.35s-13.14,2.08-24.05,2.08-19.02-.69-24.11-2.08c-5.09-1.38-7.63-3.5-7.63-6.35,0-2.44,2.89-4.68,8.67-6.71,1.22-.41,2.24-.77,3.05-1.1,2.36-.41,4.11-1.3,5.25-2.69,1.14-1.38,1.71-3.25,1.71-5.62,0-2.6-1.02-7.14-3.05-13.61-2.04-6.47-4.68-12.92-7.93-19.35-1.06-1.87-3.17-3.17-6.35-3.91s-9.4-1.1-18.68-1.1h-13.67ZM285.64,334.74c3.25-.16,6.9-.28,10.93-.37,4.03-.08,10.35-.12,18.98-.12,9.2,0,16.25.04,21.18.12,4.92.08,9.54.24,13.85.49-6.27-16.52-12.21-31.33-17.82-44.43-5.62-13.1-10.17-22.99-13.67-29.66h-1.71c-3.09,5.78-7.22,14.67-12.39,26.67-5.17,12-11.62,27.77-19.35,47.3Z"/></svg>