<?xml version="1.0" encoding="UTF-8"?><svg id="Layer_1" xmlns="http://www.w3.org/2000/svg" viewBox="0 0 640 640"><path d="M250.92,407.37c0,.5-.17,1.24-.5,2.23-.5.5-.99.74-1.49.74s-.74.41-.74,1.24h-2.73c-1.33,0-2.52-.41-3.6-1.24-1.08-.83-1.61-1.9-1.61-3.22,0-1.98.99-3.8,2.98-5.46.33.17.74.33,1.24.5.5.17.91.25,1.24.25s.58-.04.74-.12c.16-.08.41-.12.74-.12.83,0,1.49.21,1.98.62.5.41.99.79,1.49,1.12,0,.66.04,1.28.12,1.86.08.58.12,1.12.12,1.61ZM258.11,388.02c0,.99-.5,1.95-1.49,2.85-.99.91-1.98,1.36-2.98,1.36-.66,0-1.33-.33-1.98-.99-.83-.33-1.57-.83-2.23-1.49-.66-.66-.99-1.4-.99-2.23v-1.74c.5-.5.95-.87,1.36-1.12.41-.25.7-.78.87-1.61h2.23c.83,0,1.57.12,2.23.37.66.25,1.32.54,1.98.87.66,1.65.99,2.9.99,3.72ZM268.53,362.72c0,1.49-.66,2.69-1.98,3.6-1.33.91-2.65,1.53-3.97,1.86-1.16-.99-2.57-1.74-4.22-2.23,0-.66-.09-1.2-.25-1.61-.17-.41-.25-.95-.25-1.61,0-.83.33-1.65.99-2.48.66-.83,1.24-1.49,1.74-1.98,2.31,0,4.38.33,6.2.99.33.66.58,1.24.74,1.74.16.5.41,1.08.74,1.74h.25ZM279.44,338.91c-.66.99-1.33,1.98-1.98,2.98-.66.99-1.65,1.49-2.98,1.49-1.16,0-2.36-.5-3.6-1.49s-1.86-2.07-1.86-3.22c0-.99.41-2.11,1.24-3.35.83-1.24,1.82-1.86,2.98-1.86.83,0,1.53.17,2.11.5.58.33,1.28.58,2.11.74.66.66,1.03,1.33,1.12,1.98.08.66.37,1.41.87,2.23ZM290.11,314.35c-.83.5-1.7,1.03-2.6,1.61-.91.58-1.86.87-2.85.87-1.33-.83-2.4-1.57-3.22-2.23-.83-.66-1.24-1.74-1.24-3.22l-.5-1.49c1.82-1.15,3.1-1.74,3.84-1.74s2.02-.08,3.84-.25l.99.5c.83.83,1.24,1.78,1.24,2.85s.16,2.11.5,3.1ZM303.26,283.35c-.99.99-2.11,1.9-3.35,2.73-1.24.83-2.6,1.24-4.09,1.24-.83,0-1.74-.5-2.73-1.49-.5-1.15-.74-2.4-.74-3.72,0-.5.08-.99.25-1.49.16-.5.25-.99.25-1.49.66-.33,1.28-.7,1.86-1.12.58-.41,1.28-.62,2.11-.62.66,0,1.24.25,1.74.74.66,0,1.24.09,1.74.25.5.17.99.25,1.49.25.33.99.53,1.82.62,2.48.08.66.37,1.41.87,2.23ZM305.49,343.12l-2.73,3.47c-.66.33-1.33.5-1.98.5s-1.28-.08-1.86-.25c-.58-.16-1.2-.33-1.86-.5-.33-.66-.58-1.28-.74-1.86-.17-.58-.66-1.03-1.49-1.36.33-1.49.83-2.6,1.49-3.35.66-.74,1.57-1.61,2.73-2.6.83.33,1.65.5,2.48.5s1.65.09,2.48.25c.33.83.53,1.7.62,2.6.08.91.37,1.78.87,2.6ZM316.4,255.81c0,1.33-.58,2.44-1.74,3.35-1.16.91-2.4,1.36-3.72,1.36-.66,0-1.33-.16-1.98-.5-.33.17-.66.29-.99.37-.33.09-.66.21-.99.37-.17-.99-.37-2.02-.62-3.1-.25-1.07-.37-2.11-.37-3.1s.29-1.69.87-2.11c.58-.41,1.2-1.03,1.86-1.86.83,0,1.74.04,2.73.12.99.09,1.9.12,2.73.12.33.83.78,1.61,1.36,2.36.58.74.87,1.61.87,2.6ZM327.07,340.89c0,.83-.04,1.57-.12,2.23-.09.66-.12,1.41-.12,2.23l-1.24.74c-1.82.66-3.81.99-5.95.99-1.33-1.32-1.98-2.44-1.98-3.35s-.17-2.19-.5-3.84c1.82-1.82,3.8-2.73,5.95-2.73h1.74c.33.66.66,1.33.99,1.98.33.66.74,1.24,1.24,1.74ZM328.31,227.04c0,1.33-.25,2.4-.74,3.22-.5.83-.91,1.9-1.24,3.22h-3.97c-.99-.66-1.9-1.07-2.73-1.24-.83-.16-1.24-.99-1.24-2.48,0-.66.08-1.28.25-1.86.16-.58.25-1.12.25-1.61.99-1.49,2.4-2.23,4.22-2.23.66,0,1.65.17,2.98.5.33.66.58,1.16.74,1.49.16.33.66.66,1.49.99ZM342.2,251.1c-.33.66-.91,1.45-1.74,2.36-.83.91-1.33,1.61-1.49,2.11l-1.24.5c-1.33,0-2.4-.25-3.22-.74-.83-.5-1.82-1.15-2.98-1.98.33-1.32.7-2.77,1.12-4.34.41-1.57,1.53-2.36,3.35-2.36,1.65,0,3.02.29,4.09.87,1.07.58,1.77,1.78,2.11,3.6ZM348.65,342.38c0,1.65-.74,2.98-2.23,3.97-1.33.17-2.9.66-4.71,1.49l-3.97-2.73c.33-.66.45-1.28.37-1.86-.09-.58-.12-1.28-.12-2.11.83-1.49,1.49-2.48,1.98-2.98s.95-.78,1.36-.87c.41-.08.83-.16,1.24-.25.41-.08.87-.37,1.36-.87l3.72,1.98v1.24c0,.5.16.95.5,1.36.33.41.5.95.5,1.61ZM353.61,283.1l-2.98,3.47c-.99.33-1.65.5-1.98.5-.83,0-1.61-.16-2.36-.5-.74-.33-1.53-.66-2.36-.99-.17-.5-.33-.99-.5-1.49-.17-.5-.25-1.07-.25-1.74,0-.16.16-.74.5-1.74,1.65-1.65,3.8-2.48,6.45-2.48,1.32,1.33,2.48,2.98,3.47,4.96ZM365.27,309.64c0,.66-.12,1.33-.37,1.98-.25.66-.37,1.33-.37,1.98-.83.17-1.57.46-2.23.87-.66.41-1.41.62-2.23.62s-1.65-.29-2.48-.87c-.83-.58-1.65-.95-2.48-1.12,0-.33.08-.62.25-.87.16-.25.25-.53.25-.87s-.09-.7-.25-1.12c-.17-.41-.33-.78-.5-1.12.83-.99,1.74-1.94,2.73-2.85.99-.91,2.15-1.36,3.47-1.36,1.15,0,2.15.5,2.98,1.49.83.99,1.24,2.07,1.24,3.22ZM372.96,337.42c0,2.15-.62,3.35-1.86,3.6s-2.6.79-4.09,1.61c-.66-.66-1.33-1.15-1.98-1.49-.66-.33-1.24-.91-1.74-1.74-.17-.83-.33-1.69-.5-2.6-.17-.91-.41-1.77-.74-2.6.99-.5,2.02-.95,3.1-1.36,1.07-.41,2.27-.62,3.6-.62,1.65,0,2.77.5,3.35,1.49.58.99.87,2.23.87,3.72ZM383.62,357.26c0,1.33-.25,2.73-.74,4.22-.83.33-1.65.62-2.48.87-.83.25-1.65.37-2.48.37-2.81,0-4.22-1.4-4.22-4.22,0-.5.04-.95.12-1.36.08-.41.12-.78.12-1.12l2.48-2.98c.83.33,1.61.5,2.36.5s1.53.09,2.36.25c1.15,1.16,1.98,2.32,2.48,3.47ZM391.07,384.05c-.5,1.82-1.28,3.19-2.36,4.09-1.08.91-2.52,1.61-4.34,2.11-.83-.83-1.61-1.53-2.36-2.11-.74-.58-1.45-1.28-2.11-2.11.16-.66.33-1.28.5-1.86.16-.58.25-1.28.25-2.11.83-.33,1.4-.74,1.74-1.24.33-.5.83-.99,1.49-1.49.99.33,1.98.58,2.98.74.99.17,1.98.5,2.98.99,0,.83.08,1.41.25,1.74l.99,1.24ZM399.75,409.1c-.33.66-.79,1.24-1.36,1.74-.58.5-1.12.91-1.61,1.24-1.33-.33-2.48-.5-3.47-.5s-1.9-.09-2.73-.25c-.17-.83-.37-1.65-.62-2.48s-.37-1.65-.37-2.48c0-.99.58-1.82,1.74-2.48,1.15-.66,2.23-.99,3.22-.99,1.32,0,2.73.25,4.22.74.33.83.53,1.7.62,2.6.08.91.21,1.86.37,2.85Z"/></svg>