<?xml version="1.0" encoding="UTF-8"?><svg id="Layer_1" xmlns="http://www.w3.org/2000/svg" viewBox="0 0 640 640"><path d="M278.74,405.5c-4.88,3.96-11,5.93-18.35,5.93-4.23,0-8.19-.78-11.87-2.35-3.68-1.56-6.86-3.73-9.52-6.49-2.67-2.76-4.79-5.98-6.35-9.66-1.57-3.68-2.35-7.63-2.35-11.87,0-5.15,1.29-10.49,3.86-16.01l56.86-120.61c6.25-13.25,15.82-19.87,28.7-19.87s22.81,6.81,29.26,20.42l57.13,121.72c2.39,4.6,3.59,9.48,3.59,14.63,0,4.23-.83,8.14-2.48,11.73-1.66,3.59-3.86,6.76-6.62,9.52-2.76,2.76-5.98,4.92-9.66,6.49-3.68,1.56-7.64,2.35-11.87,2.35-6.99,0-12.83-1.84-17.53-5.52-4.69-3.68-9.16-10.21-13.39-19.6h-56.3c-3.86,8.83-8.24,15.23-13.11,19.18ZM247.41,361.21c-2.58,5.89-4.33,10.12-5.24,12.7-.92,2.58-1.38,4.97-1.38,7.18,0,2.39.5,4.79,1.52,7.18,1.01,2.39,2.3,4.51,3.86,6.35,1.56,1.84,3.36,3.31,5.38,4.42,2.02,1.1,4.04,1.66,6.07,1.66,3.68,0,5.52-1.75,5.52-5.24,0-2.21-1.48-3.77-4.42-4.69-2.58-.73-4.6-1.98-6.07-3.73-1.48-1.75-2.21-3.91-2.21-6.49,0-2.02,1.01-5.33,3.04-9.94l1.38-2.48,48.58-104.6c.92-1.66,1.47-2.9,1.66-3.73.18-.83.28-1.52.28-2.07,0-1.1-.41-2.07-1.24-2.9-.83-.83-1.98-1.24-3.45-1.24-1.1,0-2.07.37-2.9,1.1-.83.74-1.7,2.21-2.62,4.42l-47.75,102.12ZM337.39,375.83h4.14c2.94,0,5.29.1,7.04.28,1.75.19,3.17.55,4.28,1.1,1.1.55,2.07,1.38,2.9,2.48.83,1.1,1.7,2.58,2.62,4.42,2.21,4.23,3.82,7.09,4.83,8.56,1.01,1.48,2.16,2.85,3.45,4.14,2.94,2.76,6.44,4.14,10.49,4.14s5.8-1.75,5.8-5.24c0-2.57-1.57-4.14-4.69-4.69-2.58-.37-4.37-.97-5.38-1.79-1.01-.83-2.26-2.62-3.73-5.38-2.03-3.86-3.77-6.94-5.24-9.25-1.47-2.3-3.13-4.05-4.97-5.24-1.84-1.19-4.05-1.98-6.62-2.35-2.58-.37-5.8-.55-9.66-.55h-46.92c-3.5,0-5.8.32-6.9.97-1.1.65-1.66,1.98-1.66,4,0,2.95,1.75,4.42,5.24,4.42h44.99ZM308.13,240.04c-1.47,0-2.76.55-3.86,1.66s-1.66,2.39-1.66,3.86.55,2.76,1.66,3.86,2.39,1.66,3.86,1.66,2.76-.55,3.86-1.66,1.66-2.39,1.66-3.86-.55-2.76-1.66-3.86-2.39-1.66-3.86-1.66ZM309.79,342.99h19.87l-9.38-22.91-10.49,22.91ZM340.42,342.16c1.1,2.58,2.02,4.23,2.76,4.97.73.74,1.75,1.1,3.04,1.1,2.94,0,4.42-1.38,4.42-4.14,0-1.1-.28-2.21-.83-3.31l-1.1-2.21-14.08-32.57c-1.1-2.57-1.98-4.28-2.62-5.11-.65-.83-1.61-1.24-2.9-1.24s-2.39.46-3.31,1.38-1.38,2.03-1.38,3.31c0,.55.14,1.34.41,2.35.28,1.01.69,1.98,1.24,2.9l14.35,32.57Z"/></svg>