<?xml version="1.0" encoding="UTF-8"?><svg id="Layer_1" xmlns="http://www.w3.org/2000/svg" viewBox="0 0 640 640"><path d="M346.38,226.62c10.97,0,21.09,2.75,30.37,8.23,9.28,5.49,16.61,12.87,22.02,22.14,5.4,9.28,8.11,19.32,8.11,30.13s-2.7,21.14-8.11,30.49c-5.41,9.36-12.75,16.74-22.02,22.14-9.28,5.41-19.4,8.11-30.37,8.11h-85.18c-.48,0-.73.24-.73.73s.24.73.73.73h147.14c8.39,0,15.53,2.95,21.42,8.83,5.89,5.89,8.83,13.03,8.83,21.42,0,5.49-1.37,10.57-4.11,15.25-2.75,4.68-6.41,8.39-11.01,11.13-4.6,2.75-9.64,4.11-15.12,4.11h-146.41c-10.97,0-21.1-2.7-30.37-8.11-9.28-5.4-16.62-12.78-22.02-22.14-5.41-9.35-8.11-19.52-8.11-30.49s2.7-20.89,8.11-30.25c5.4-9.35,12.74-16.74,22.02-22.14,9.28-5.4,19.4-8.11,30.37-8.11l86.15.24c.48,0,.73-.24.73-.73s-.24-.73-.73-.73h-24.68c-5.49,0-10.53-1.41-15.12-4.23-4.6-2.82-8.27-6.61-11.01-11.37-2.75-4.76-4.11-9.88-4.11-15.37,0-8.39,2.94-15.49,8.83-21.3,5.89-5.81,13.03-8.71,21.42-8.71h22.99Z"/></svg>