<?xml version="1.0" encoding="UTF-8"?><svg id="Layer_1" xmlns="http://www.w3.org/2000/svg" viewBox="0 0 640 640"><path d="M235.25,410.06c9.5-10.82,16.9-31.15,21.38-45.41l41.19-120.12c1.32-3.96,2.38-8.45,2.38-11.62,0-2.11-.53-4.22-2.38-5.54h48.05c-1.32,1.32-1.85,2.64-1.85,4.49,0,2.64,2.11,11.62,4.49,19.01l35.11,113.79c4.49,14.26,11.88,34.58,21.12,45.41h-56.76c4.75-6.6,6.6-13.99,6.6-21.38,0-4.75-.79-11.62-2.9-15.31h-65.21c-2.38,4.22-3.96,10.3-3.96,16.9,0,7.92,3.17,15.84,7.66,19.8h-54.91ZM343.76,346.96l-23.23-78.94h-.53l-24.55,78.94h48.31Z"/></svg>