<?xml version="1.0" encoding="UTF-8"?><svg id="Layer_1" xmlns="http://www.w3.org/2000/svg" viewBox="0 0 1280 640"><path d="M345.95,314.33c0,16.21-14.04,27.1-14.04,37.27,0,11.37,17.18,19.6,17.18,36.54,0,13.55-9.92,25.17-24.69,25.17-10.89,0-18.88-6.54-19.6-14.76-1.69-20.57,14.28-23.96,14.28-47.19,0-7.26-5.32-13.31-11.62-13.31-8.23,0-10.65,10.65-19.12,10.65-6.05,0-10.65-5.32-11.13-13.79h-32.91c3.63,11.13,23.72,6.54,23.72,20.81s-15.97,6.29-15.97,26.86c0,26.86-20.57,29.77-30.25,29.77-8.95,0-26.38-2.9-26.38-18.88,0-23.23,39.21-7.02,39.21-28.56s-32.19-15-32.19-34.12,15.97-12.83,19.36-28.07c2.9-12.58-5.08-13.31-4.6-22.75,0-8.71,7.5-15.73,16.7-15.73,6.29,0,12.59.24,15.01-11.62,3.14-14.04,13.31-26.38,28.31-26.38,45.74,0,5.08,71.15,44.77,69.21,16.94-.73,23.96,7.74,23.96,18.88ZM255.93,304.65h27.35c8.23-12.58,12.83-54.69-10.65-54.69-21.78,0-24.44,40.9-16.7,54.69Z"/><path d="M568.48,409.34c0,.5-.17,1.24-.5,2.23-.5.5-.99.74-1.49.74s-.74.41-.74,1.24h-2.73c-1.32,0-2.52-.42-3.6-1.24-1.08-.83-1.61-1.9-1.61-3.22,0-1.98.99-3.8,2.98-5.46.33.17.74.33,1.24.5.5.17.91.25,1.24.25s.58-.04.74-.12c.16-.08.41-.12.74-.12.83,0,1.49.21,1.98.62.5.42.99.79,1.49,1.12,0,.66.04,1.28.12,1.86.08.58.12,1.12.12,1.61ZM575.67,389.99c0,.99-.5,1.95-1.49,2.85-.99.91-1.98,1.37-2.98,1.37-.66,0-1.32-.33-1.98-.99-.83-.33-1.57-.83-2.23-1.49-.66-.66-.99-1.4-.99-2.23v-1.74c.5-.5.95-.87,1.37-1.12.41-.25.7-.78.87-1.61h2.23c.83,0,1.57.12,2.23.37.66.25,1.32.54,1.98.87.66,1.65.99,2.89.99,3.72ZM586.09,364.69c0,1.49-.66,2.69-1.98,3.6-1.32.91-2.65,1.53-3.97,1.86-1.16-.99-2.56-1.74-4.22-2.23,0-.66-.08-1.2-.25-1.61-.17-.41-.25-.95-.25-1.61,0-.83.33-1.65.99-2.48.66-.83,1.24-1.49,1.74-1.98,2.31,0,4.38.33,6.2.99.33.66.58,1.24.74,1.74.16.5.41,1.08.74,1.74h.25ZM597.01,340.88c-.66.99-1.32,1.98-1.98,2.98-.66.99-1.65,1.49-2.98,1.49-1.16,0-2.36-.5-3.6-1.49s-1.86-2.07-1.86-3.22c0-.99.41-2.11,1.24-3.35.83-1.24,1.82-1.86,2.98-1.86.83,0,1.53.17,2.11.5.58.33,1.28.58,2.11.74.66.66,1.03,1.32,1.12,1.98.08.66.37,1.41.87,2.23ZM607.67,316.32c-.83.5-1.7,1.04-2.6,1.61-.91.58-1.86.87-2.85.87-1.32-.83-2.4-1.57-3.22-2.23-.83-.66-1.24-1.74-1.24-3.22l-.5-1.49c1.82-1.16,3.1-1.74,3.85-1.74s2.02-.08,3.84-.25l.99.5c.83.83,1.24,1.78,1.24,2.85s.16,2.11.5,3.1ZM620.82,285.32c-.99.99-2.11,1.9-3.35,2.73-1.24.83-2.61,1.24-4.09,1.24-.83,0-1.74-.5-2.73-1.49-.5-1.16-.74-2.4-.74-3.72,0-.5.08-.99.25-1.49.16-.5.25-.99.25-1.49.66-.33,1.28-.7,1.86-1.12.58-.41,1.28-.62,2.11-.62.66,0,1.24.25,1.74.74.66,0,1.24.08,1.74.25.5.17.99.25,1.49.25.33.99.54,1.82.62,2.48.08.66.37,1.41.87,2.23ZM623.05,345.1l-2.73,3.47c-.66.33-1.32.5-1.98.5s-1.28-.08-1.86-.25c-.58-.16-1.2-.33-1.86-.5-.33-.66-.58-1.28-.74-1.86-.17-.58-.66-1.03-1.49-1.36.33-1.49.83-2.61,1.49-3.35.66-.74,1.57-1.61,2.73-2.6.83.33,1.65.5,2.48.5s1.65.08,2.48.25c.33.83.54,1.7.62,2.6.08.91.37,1.78.87,2.61ZM633.96,257.78c0,1.33-.58,2.44-1.74,3.35-1.16.91-2.4,1.36-3.72,1.36-.66,0-1.32-.16-1.98-.5-.33.17-.66.29-.99.37-.33.08-.66.21-.99.37-.17-.99-.37-2.02-.62-3.1-.25-1.07-.37-2.11-.37-3.1s.29-1.69.87-2.11c.58-.41,1.2-1.03,1.86-1.86.83,0,1.74.04,2.73.12.99.08,1.9.12,2.73.12.33.83.78,1.61,1.37,2.36.58.74.87,1.61.87,2.6ZM644.63,342.87c0,.83-.04,1.57-.12,2.23-.09.66-.12,1.41-.12,2.23l-1.24.74c-1.82.66-3.8.99-5.95.99-1.32-1.32-1.98-2.44-1.98-3.35s-.17-2.19-.5-3.84c1.82-1.82,3.8-2.73,5.95-2.73h1.74c.33.66.66,1.32.99,1.98.33.66.74,1.24,1.24,1.74ZM645.87,229.01c0,1.33-.25,2.4-.74,3.22-.5.83-.91,1.9-1.24,3.22h-3.97c-.99-.66-1.9-1.07-2.73-1.24-.83-.16-1.24-.99-1.24-2.48,0-.66.08-1.28.25-1.86.16-.58.25-1.12.25-1.61.99-1.49,2.4-2.23,4.22-2.23.66,0,1.65.17,2.98.5.33.66.58,1.16.74,1.49.16.33.66.66,1.49.99ZM659.76,253.07c-.33.66-.91,1.45-1.74,2.36-.83.91-1.32,1.61-1.49,2.11l-1.24.5c-1.32,0-2.4-.25-3.22-.74-.83-.5-1.82-1.16-2.98-1.98.33-1.32.7-2.77,1.12-4.34.41-1.57,1.53-2.36,3.35-2.36,1.65,0,3.02.29,4.09.87,1.07.58,1.78,1.78,2.11,3.6ZM666.21,344.35c0,1.65-.74,2.98-2.23,3.97-1.32.17-2.89.66-4.71,1.49l-3.97-2.73c.33-.66.45-1.28.37-1.86-.09-.58-.12-1.28-.12-2.11.83-1.49,1.49-2.48,1.98-2.98s.95-.78,1.37-.87c.41-.08.82-.16,1.24-.25.41-.08.87-.37,1.36-.87l3.72,1.98v1.24c0,.5.16.95.5,1.36.33.42.5.95.5,1.61ZM671.17,285.07l-2.98,3.47c-.99.33-1.65.5-1.98.5-.83,0-1.61-.16-2.36-.5-.74-.33-1.53-.66-2.36-.99-.17-.5-.33-.99-.5-1.49-.17-.5-.25-1.07-.25-1.74,0-.16.16-.74.5-1.74,1.65-1.65,3.8-2.48,6.45-2.48,1.32,1.33,2.48,2.98,3.47,4.96ZM682.83,311.61c0,.66-.12,1.33-.37,1.98-.25.66-.37,1.33-.37,1.98-.83.17-1.57.46-2.23.87-.66.42-1.41.62-2.23.62s-1.65-.29-2.48-.87c-.83-.58-1.65-.95-2.48-1.12,0-.33.08-.62.25-.87.16-.25.25-.54.25-.87s-.08-.7-.25-1.12c-.17-.41-.33-.78-.5-1.12.83-.99,1.74-1.94,2.73-2.85.99-.91,2.15-1.36,3.47-1.36,1.16,0,2.15.5,2.98,1.49.83.99,1.24,2.07,1.24,3.22ZM690.52,339.39c0,2.15-.62,3.35-1.86,3.6s-2.61.79-4.09,1.61c-.66-.66-1.32-1.16-1.98-1.49-.66-.33-1.24-.91-1.74-1.74-.17-.83-.33-1.69-.5-2.61-.17-.91-.41-1.78-.74-2.6.99-.5,2.02-.95,3.1-1.37,1.07-.41,2.27-.62,3.6-.62,1.65,0,2.77.5,3.35,1.49.58.99.87,2.23.87,3.72ZM701.19,359.24c0,1.32-.25,2.73-.74,4.22-.83.33-1.65.62-2.48.87-.83.25-1.65.37-2.48.37-2.81,0-4.22-1.4-4.22-4.22,0-.5.04-.95.12-1.37.08-.41.12-.78.12-1.12l2.48-2.98c.83.33,1.61.5,2.36.5s1.53.08,2.36.25c1.16,1.16,1.98,2.32,2.48,3.47ZM708.63,386.03c-.5,1.82-1.28,3.19-2.36,4.09-1.08.91-2.52,1.61-4.34,2.11-.83-.83-1.61-1.53-2.36-2.11-.74-.58-1.45-1.28-2.11-2.11.16-.66.33-1.28.5-1.86.16-.58.25-1.28.25-2.11.83-.33,1.4-.74,1.74-1.24.33-.5.83-.99,1.49-1.49.99.33,1.98.58,2.98.74.99.17,1.98.5,2.98.99,0,.83.08,1.41.25,1.74l.99,1.24ZM717.31,411.08c-.33.66-.79,1.24-1.36,1.74-.58.5-1.12.91-1.61,1.24-1.32-.33-2.48-.5-3.47-.5s-1.9-.09-2.73-.25c-.17-.83-.37-1.66-.62-2.48-.25-.83-.37-1.65-.37-2.48,0-.99.58-1.82,1.74-2.48,1.16-.66,2.23-.99,3.22-.99,1.32,0,2.73.25,4.22.74.33.83.54,1.7.62,2.6.08.91.21,1.86.37,2.85Z"/><path d="M1081.97,410.58h-23.4l-2.6-2.6-13-33.8-5.2-2.6h-65l-5.2,2.6-13,33.8-2.6,2.6h-23.4l-2.6-2.6v-26l59.8-150.8,2.6-2.6h33.8l2.6,2.6,59.8,150.8v26l-2.6,2.6ZM1006.57,275.38h-2.6l-23.4,62.4,2.6,2.6h44.2l2.6-2.6-23.4-62.4Z"/><path d="M453.6,328.07h-67.35v-10.74h67.35v-66.61h9.52v66.61h67.59v10.74h-67.59v66.61h-9.52v-66.61Z"/><path d="M811.76,328.07h-67.35v-10.74h67.35v-66.61h9.52v66.61h67.59v10.74h-67.59v66.61h-9.52v-66.61Z"/></svg>