<?xml version="1.0" encoding="UTF-8"?><svg id="Layer_1" xmlns="http://www.w3.org/2000/svg" viewBox="0 0 1280 640"><path d="M222.71,410.65h-13.46l-4.18-1.39,1.62-4.41,16.01,5.8ZM211.35,392.79l26.21,9.28-1.62,4.41-26.22-9.51,1.62-4.18ZM216.22,380.49l25.52,9.28-1.39,4.41-25.98-9.28,1.86-4.41ZM220.86,368.43l25.29,9.05-1.62,4.41-25.29-9.05,1.62-4.41ZM225.5,356.13l24.82,9.05-1.39,4.41-25.05-9.05,1.62-4.41ZM230.14,343.84l24.59,9.05-1.62,4.41-24.59-9.05,1.62-4.41ZM234.78,332l24.13,8.58-1.39,4.41-24.36-8.82,1.62-4.18ZM239.42,319.71l23.9,8.58-1.62,4.41-23.89-8.58,1.62-4.41ZM244.06,307.41l23.66,8.58-1.62,4.41-23.66-8.58,1.62-4.41ZM248.7,295.35l23.2,8.35-1.39,4.41-23.43-8.58,1.62-4.18ZM253.34,283.05l22.97,8.35-1.62,4.41-22.97-8.35,1.62-4.41ZM257.98,270.99l22.73,8.12-1.62,4.41-22.74-8.35,1.62-4.18ZM262.85,258.69l22.27,8.12-1.62,4.41-22.5-8.12,1.86-4.41ZM264.24,340.82l4.64-13.22v21.11h-4.64v-7.89ZM267.49,246.63l21.81,7.89-1.39,4.41-22.04-7.89,1.62-4.41ZM272.13,234.33l21.58,7.89-1.62,4.41-21.58-7.89,1.62-4.41ZM279.09,322.96h4.64v25.75h-4.64v-25.75ZM293.47,228.3l4.64,1.86-1.62,4.18-16.24-6.03h13.22ZM290.22,270.52l23.66-8.58,1.62,4.18-23.66,8.82-1.62-4.41ZM294.63,254.75l14.62-5.34,1.62,4.41-18.33,6.5,2.09-5.57ZM293.94,322.96h4.64v25.75h-4.64v-25.75ZM294.63,283.05l23.9-8.82,1.62,4.41-23.89,8.82-1.62-4.41ZM300.2,238.51l4.64-1.62,1.62,4.41-8.35,3.02,2.09-5.8ZM299.04,295.58l24.13-8.82,1.62,4.41-24.36,8.82-1.39-4.41ZM303.22,308.11l24.59-8.82,1.62,4.41-24.59,8.82-1.62-4.41ZM308.78,322.96h4.64v25.75h-4.64v-25.75ZM313.89,318.32l18.33-6.5,1.62,4.41-6.03,2.09h-13.92ZM347.76,353.35l.46,1.16-25.52,9.28-1.39-4.41,16.7-6.03h9.74ZM323.63,322.96h4.64v25.75h-4.64v-25.75ZM325.95,373.07l25.75-9.28,1.62,4.41-25.75,9.28-1.62-4.41ZM330.82,386.52l25.98-9.05,1.62,4.18-26.21,9.28-1.39-4.41ZM335.46,400.21l26.21-9.28,1.62,4.18-26.21,9.51-1.62-4.41ZM338.48,328.06l4.64,12.53v8.12h-4.64v-20.65ZM349.38,410.65l17.4-6.26,1.62,4.41-5.57,1.86h-13.46Z"/><path d="M710.59,384.83l-63.44-155.6c-.17-.43-.47-.7-.8-.81l.08-.18h-49.88v25.75h38.12l-53.76,130.85h-27.74v25.75h75.4v-25.75h-45.21l19.95-48.65h84.91l19.8,48.65h-48.83v25.75h77.72v-25.75h-26.31ZM604.22,333.86l41.76-101.38,41.06,101.38h-82.82Z"/><path d="M1052.41,410.58l-28.07-70.06h-59.85l-27.84,70.06h-11.14l73.54-183.97h1.86l74.01,183.97h-22.5ZM968.2,331.01h52.2l-26.21-65.42-25.98,65.42Z"/><path d="M461.06,328.18h-67.35v-10.74h67.35v-66.61h9.52v66.61h67.59v10.74h-67.59v66.61h-9.52v-66.61Z"/><path d="M819.22,328.18h-67.35v-10.74h67.35v-66.61h9.52v66.61h67.59v10.74h-67.59v66.61h-9.52v-66.61Z"/></svg>