<?xml version="1.0" encoding="UTF-8"?><svg id="Layer_1" xmlns="http://www.w3.org/2000/svg" viewBox="0 0 1280 640"><path d="M271.56,349.13h-13.06c-9.36,0-15.56.24-18.62.73-3.05.49-4.99,1.34-5.8,2.56-.57.73-1.24,1.91-2.01,3.54-.77,1.63-2.06,4.76-3.85,9.4-.33.9-.81,2.16-1.46,3.78-3.66,9.03-5.49,14.85-5.49,17.46,0,2.2.57,3.99,1.71,5.37,1.14,1.38,2.97,2.52,5.49,3.42.89.33,2.08.73,3.54,1.22,5.37,1.87,8.06,3.99,8.06,6.35,0,3.01-2.26,5.21-6.78,6.59-4.52,1.38-11.94,2.08-22.28,2.08s-17.6-.67-22.04-2.01c-4.44-1.34-6.65-3.56-6.65-6.65,0-2.44,2.69-4.47,8.06-6.1,2.52-.73,4.39-1.38,5.62-1.95,3.99-2.52,8.95-10.99,14.89-25.39l.61-1.59c5.53-13.43,12.98-31.33,22.34-53.71,20.02-48.1,30.6-74.71,31.74-79.83.08-.49.24-1.26.49-2.32.81-3.91,3.46-5.86,7.94-5.86,2.69,0,4.8.59,6.35,1.77,1.54,1.18,3.46,4.25,5.74,9.22,9.28,20.51,22.38,52.37,39.31,95.58,7.97,20.35,14,35.6,18.07,45.78.32.73.69,1.63,1.1,2.69,3.09,7.65,6.27,12.37,9.52,14.16.89.49,2.48,1.1,4.76,1.83,4.8,1.55,7.2,3.54,7.2,5.98,0,2.85-2.56,4.96-7.69,6.35s-13.14,2.08-24.05,2.08-19.02-.69-24.11-2.08-7.63-3.5-7.63-6.35c0-2.44,2.89-4.68,8.67-6.71,1.22-.41,2.24-.77,3.05-1.1,2.36-.41,4.11-1.3,5.25-2.69,1.14-1.38,1.71-3.25,1.71-5.62,0-2.6-1.02-7.14-3.05-13.61-2.04-6.47-4.68-12.92-7.94-19.35-1.06-1.87-3.17-3.17-6.35-3.91s-9.4-1.1-18.68-1.1h-13.67ZM239.82,335.33c3.25-.16,6.9-.28,10.92-.37,4.03-.08,10.36-.12,18.98-.12,9.2,0,16.26.04,21.18.12,4.92.08,9.54.24,13.86.49-6.27-16.52-12.21-31.33-17.82-44.43-5.62-13.1-10.17-22.99-13.67-29.66h-1.71c-3.09,5.78-7.22,14.67-12.39,26.67s-11.62,27.77-19.35,47.3Z"/><path d="M699.34,368.24c0,11.59,1.26,13.61,9.83,19.15,1.51,1.01,3.53,1.26,5.54,1.26,2.27,0,6.05-4.03,7.81-5.8,1.01-.76,4.03,1.01,3.28,2.02-7.31,9.58-17.39,20.66-26.46,28.73-14.62-6.8-25.2-20.16-27.21-20.16s-21.92,16.13-25.71,18.65c-30.74-9.58-38.3-11.84-54.43-11.84-13.86,0-18.4,2.77-29.99,19.4-.76,0-3.78-3.28-3.02-4.28,22.43-29.48,28.73-37.8,56.45-76.61-17.13-6.55-23.44-10.33-33.77-19.91-12.35-11.59-19.4-25.45-19.4-38.81,0-31.75,29.74-53.42,73.33-53.42,16.88,0,34.27,3.28,52.42,13.61,4.03-7.81,9.32-13.36,15.37-15.88-3.02,15.37-4.03,75.6-4.03,90.72v53.17ZM617.44,245.27c-26.71,0-47.88,16.13-47.88,36.29,0,11.84,6.8,24.95,18.65,35.28,9.07,7.81,15.12,11.09,30.74,16.63,11.59-14.87,46.62-62.5,46.62-66.02,0-1.76-1.26-3.28-5.04-6.3-14.87-11.09-27.97-15.88-43.09-15.88ZM671.12,344.05l-12.35.25c-13.61.25-26.46,0-38.05-4.03-6.55,9.07-11.84,16.63-19.4,25.96-9.83,12.35-14.62,19.66-14.62,21.67,0,.76.25,1.26.76,1.26,2.27,0,4.28-.5,6.8-1.01,10.33-2.27,18.9-3.28,29.99-3.28,10.08,0,24.44,1.26,38.81,3.28,2.77.25,5.29.76,5.79.76,1.51,0,2.27-1.26,2.27-4.03v-40.82ZM677.17,268.2c1.26-2.27,1.51-2.52,1.51-3.53,0-.76-.5-1.51-1.26-1.51-2.27,0-6.3,5.54-25.45,34.02-5.8,8.57-14.62,20.92-26.71,37.3,7.81,1.76,15.62,2.52,24.19,2.52,7.06,0,15.37-.76,21.67-1.76.5-41.08.5-56.45,6.05-67.03Z"/><path d="M966.71,406.03c-4.88,3.96-11,5.93-18.35,5.93-4.24,0-8.19-.79-11.87-2.35-3.68-1.56-6.86-3.73-9.52-6.49-2.67-2.76-4.79-5.98-6.35-9.66-1.57-3.68-2.35-7.63-2.35-11.87,0-5.15,1.29-10.49,3.86-16.01l56.86-120.61c6.25-13.25,15.82-19.87,28.71-19.87s22.81,6.81,29.26,20.42l57.13,121.72c2.39,4.6,3.59,9.48,3.59,14.63,0,4.24-.83,8.14-2.48,11.73-1.66,3.59-3.87,6.76-6.62,9.52s-5.98,4.92-9.66,6.49c-3.68,1.56-7.64,2.35-11.87,2.35-7,0-12.83-1.84-17.53-5.52-4.69-3.68-9.15-10.21-13.38-19.6h-56.3c-3.86,8.83-8.24,15.23-13.11,19.18ZM935.39,361.73c-2.58,5.89-4.33,10.12-5.24,12.7-.92,2.58-1.38,4.97-1.38,7.18,0,2.39.51,4.79,1.52,7.18,1.01,2.39,2.3,4.51,3.86,6.35,1.56,1.84,3.36,3.31,5.38,4.42,2.02,1.1,4.04,1.66,6.07,1.66,3.68,0,5.52-1.75,5.52-5.24,0-2.21-1.47-3.77-4.42-4.69-2.58-.73-4.6-1.97-6.07-3.73-1.47-1.75-2.21-3.91-2.21-6.49,0-2.02,1.01-5.33,3.04-9.94l1.38-2.48,48.58-104.6c.92-1.66,1.47-2.9,1.66-3.73.18-.83.28-1.52.28-2.07,0-1.1-.41-2.07-1.24-2.9s-1.98-1.24-3.45-1.24c-1.1,0-2.07.37-2.9,1.1-.83.74-1.7,2.21-2.62,4.42l-47.75,102.12ZM1025.36,376.36h4.14c2.94,0,5.29.09,7.04.28,1.75.19,3.17.55,4.28,1.1,1.1.55,2.07,1.38,2.9,2.48.83,1.1,1.7,2.58,2.62,4.42,2.21,4.24,3.82,7.09,4.83,8.56,1.01,1.47,2.16,2.85,3.45,4.14,2.94,2.76,6.44,4.14,10.49,4.14s5.79-1.75,5.79-5.24c0-2.58-1.56-4.14-4.69-4.69-2.58-.37-4.37-.97-5.38-1.79-1.01-.83-2.26-2.62-3.72-5.38-2.03-3.86-3.77-6.94-5.24-9.25-1.48-2.3-3.13-4.04-4.97-5.24-1.84-1.19-4.05-1.98-6.62-2.35-2.58-.37-5.8-.55-9.66-.55h-46.92c-3.5,0-5.8.32-6.9.97-1.1.65-1.66,1.98-1.66,4,0,2.95,1.75,4.42,5.24,4.42h44.99ZM996.11,240.56c-1.48,0-2.76.55-3.87,1.66-1.1,1.1-1.66,2.39-1.66,3.86s.55,2.76,1.66,3.86c1.1,1.1,2.39,1.66,3.87,1.66s2.76-.55,3.86-1.66c1.1-1.1,1.66-2.39,1.66-3.86s-.55-2.76-1.66-3.86c-1.1-1.1-2.39-1.66-3.86-1.66ZM997.76,343.51h19.87l-9.38-22.91-10.49,22.91ZM1028.4,342.68c1.1,2.58,2.02,4.24,2.76,4.97.73.74,1.75,1.1,3.04,1.1,2.94,0,4.42-1.38,4.42-4.14,0-1.1-.28-2.21-.83-3.31l-1.11-2.21-14.07-32.57c-1.11-2.58-1.98-4.28-2.62-5.11-.65-.83-1.61-1.24-2.9-1.24s-2.39.46-3.31,1.38c-.92.92-1.38,2.03-1.38,3.31,0,.55.14,1.34.41,2.35.28,1.01.69,1.98,1.24,2.9l14.35,32.57Z"/><path d="M452.07,332.17h-64.03v-10.21h64.03v-63.33h9.05v63.33h64.26v10.21h-64.26v63.33h-9.05v-63.33Z"/><path d="M823.43,332.17h-64.03v-10.21h64.03v-63.33h9.05v63.33h64.26v10.21h-64.26v63.33h-9.05v-63.33Z"/></svg>