<?xml version="1.0" encoding="UTF-8"?><svg id="Layer_1" xmlns="http://www.w3.org/2000/svg" viewBox="0 0 1280 640"><path d="M449.68,332.17h-64.03v-10.21h64.03v-63.33h9.05v63.33h64.26v10.21h-64.26v63.33h-9.05v-63.33Z"/><path d="M821.04,332.17h-64.03v-10.21h64.03v-63.33h9.05v63.33h64.26v10.21h-64.26v63.33h-9.05v-63.33Z"/><path d="M627.94,236.12h24.59l67.74,174.46h-22.27l-19.49-50.34h-76.79l-19.26,50.34h-22.74l68.21-174.46ZM670.16,339.82l-29.7-78.41-30.39,78.41h60.09Z"/><path d="M264.63,236.12h24.59l67.74,174.46h-22.27l-19.49-50.34h-76.79l-19.26,50.34h-22.74l68.21-174.46ZM306.86,339.82l-29.7-78.41-30.39,78.41h60.09Z"/><path d="M991.24,236.12h24.59l67.74,174.46h-22.27l-19.49-50.34h-76.79l-19.26,50.34h-22.73l68.21-174.46ZM1033.46,339.82l-29.7-78.41-30.39,78.41h60.09Z"/></svg>