<?xml version="1.0" encoding="UTF-8"?><svg id="Layer_1" xmlns="http://www.w3.org/2000/svg" viewBox="0 0 1280 640"><path d="M285.66,227.15c10.97,0,21.09,2.75,30.37,8.23,9.28,5.49,16.62,12.87,22.02,22.14,5.4,9.28,8.11,19.32,8.11,30.13s-2.7,21.14-8.11,30.49c-5.41,9.36-12.75,16.74-22.02,22.14-9.28,5.41-19.4,8.11-30.37,8.11h-85.18c-.48,0-.73.24-.73.73s.24.73.73.73h147.13c8.39,0,15.53,2.95,21.42,8.83,5.89,5.89,8.83,13.03,8.83,21.42,0,5.49-1.37,10.57-4.11,15.25-2.75,4.68-6.41,8.39-11.01,11.13-4.6,2.75-9.64,4.11-15.12,4.11h-146.41c-10.97,0-21.1-2.7-30.37-8.11-9.28-5.4-16.62-12.78-22.02-22.14-5.41-9.35-8.11-19.52-8.11-30.49s2.7-20.89,8.11-30.25c5.4-9.35,12.74-16.74,22.02-22.14,9.28-5.4,19.4-8.11,30.37-8.11l86.15.24c.48,0,.73-.24.73-.73s-.24-.73-.73-.73h-24.68c-5.49,0-10.53-1.41-15.12-4.23-4.6-2.82-8.27-6.61-11.01-11.37-2.74-4.76-4.11-9.88-4.11-15.37,0-8.39,2.94-15.49,8.83-21.3,5.89-5.81,13.03-8.71,21.42-8.71h22.99Z"/><path d="M563.76,410.51c9.5-10.82,16.9-31.15,21.38-45.41l41.18-120.12c1.32-3.96,2.38-8.45,2.38-11.62,0-2.11-.53-4.22-2.38-5.54h48.05c-1.32,1.32-1.85,2.64-1.85,4.49,0,2.64,2.11,11.62,4.49,19.01l35.11,113.79c4.49,14.26,11.88,34.58,21.12,45.41h-56.76c4.75-6.6,6.6-13.99,6.6-21.38,0-4.75-.79-11.62-2.9-15.31h-65.21c-2.38,4.22-3.96,10.3-3.96,16.9,0,7.92,3.17,15.84,7.66,19.8h-54.91ZM672.26,347.42l-23.23-78.94h-.53l-24.55,78.94h48.31Z"/><path d="M1128.2,361.66l-47.91-133.34h-79.77l-47.91,133.34h-12.27v48.85h87.79v-48.85h-17.7l3.89-13.22h42.49l3.89,13.22h-14.87v48.85h93.46v-48.85h-11.09ZM1026.62,306.67l8.34-28.32h1.22l8.34,28.32h-17.9Z"/><path d="M464.54,328.07h-67.35v-10.74h67.35v-66.61h9.52v66.61h67.59v10.74h-67.59v66.61h-9.52v-66.61Z"/><path d="M822.71,328.07h-67.35v-10.74h67.35v-66.61h9.52v66.61h67.59v10.74h-67.59v66.61h-9.52v-66.61Z"/></svg>