<?xml version="1.0" encoding="UTF-8"?><svg id="Layer_1" xmlns="http://www.w3.org/2000/svg" viewBox="0 0 1280 640"><path d="M315.85,241.22l55.91,151.26c3.94,10.44-4.41,23.9-17.87,23.9-12.06,0-17.63-5.8-22.27-19.26l-14.85-43.15h-53.12l-14.85,43.15c-4.41,12.99-10.67,19.26-21.11,19.26-12.29,0-22.04-12.99-17.63-24.82l57.07-149.17c5.1-13.46,11.14-22.27,23.9-22.27,13.92,0,20.18,8.82,24.82,21.11ZM275.72,318.94h29l-14.15-40.6-14.85,40.6Z"/><path d="M981.23,228.23l-68.9,182.35h-5.8l69.83-182.35h4.87ZM990.98,228.23l-66.58,182.35h-6.03l67.74-182.35h4.87ZM1064.98,410.58l-22.73-61.94h-5.8l22.5,61.94h-6.03l-22.27-61.94h-5.57l21.81,61.94h-5.8l-21.58-61.94h-61.25l-21.81,61.94h-6.03l65.42-182.35h7.66l36.89,99.99h-74.7l-1.86,5.1h78.41l1.86,5.1h-82.13l-1.86,5.1h85.84l25.05,67.05h-6.03ZM989.12,261.87l-21.58,61.01h42.92l-21.34-61.01ZM1021.6,322.89l-27.38-75.63-2.55,7.19,24.36,68.44h5.57ZM1027.17,322.89h5.57l-33.18-90.71-2.55,7.42,30.16,83.29Z"/><path d="M442.86,328.11h-67.35v-10.74h67.35v-66.61h9.52v66.61h67.59v10.74h-67.59v66.61h-9.52v-66.61Z"/><path d="M829.37,328.11h-67.35v-10.74h67.35v-66.61h9.52v66.61h67.59v10.74h-67.59v66.61h-9.52v-66.61Z"/><path d="M519.31,371.37v-.23h40.83v.23c0,1.86.7,3.48,1.86,4.64h-42.46c0-1.39-.23-3.02-.23-4.64ZM520.24,361.86h110.43c1.16,1.39,2.32,3.02,3.25,4.64h-62.87c-1.16-.93-2.78-1.62-4.41-1.62s-3.25.7-4.41,1.62h-42.69l.7-4.64ZM520.24,380.19h79.34c-.93,1.16-1.39,2.78-1.39,4.18v.93h-76.79c-.46-1.62-.93-3.25-1.16-5.1ZM523.02,352.81h235.94l1.39,4.41h-238.72l1.39-4.41ZM608.63,389.47h29.93c-.23,1.86-.7,3.71-1.16,5.34h-111.82c-.93-1.62-1.86-3.48-2.55-5.34h77.49c1.16.93,2.55,1.39,4.18,1.39,1.39,0,2.78-.46,3.94-1.39ZM528.36,343.53h225.27l2.79,4.18h-230.84l2.79-4.18ZM527.89,398.52h108.11c-.93,2.09-2.09,3.94-3.25,5.57h-100.22c-1.62-1.62-3.25-3.48-4.64-5.57ZM536.94,334.49h207.87l4.41,3.94h-216.68l4.41-3.94ZM536.48,407.8h93.26c-2.09,2.32-4.64,4.18-7.19,5.8h-77.49c-3.02-1.62-6.03-3.48-8.58-5.8ZM704.44,325.21h21.11c3.71.93,7.19,2.09,10.67,3.71h-190.7c3.48-1.62,6.96-2.78,10.67-3.71h20.88c3.02.7,5.1,1.39,5.1,1.39l.46-1.39h117.39l.46,1.16s1.62-.46,3.95-1.16ZM553.41,416.84h26.45c-3.71.93-8.12,1.86-13.22,1.86-4.64,0-9.05-.7-13.22-1.86ZM637.86,376.01h-66.81c1.39-1.16,2.09-2.78,2.09-4.64v-.23h63.1c.7,1.62,1.16,3.25,1.62,4.87ZM586.13,316.16h44.31l-1.39,3.48h-44.31l1.39-3.48ZM589.61,306.88h44.08l-1.16,3.25h-44.08l1.16-3.25ZM593.09,297.83h43.61l-.93,3.02h-43.85l1.16-3.02ZM593.55,416.84h22.27c-3.48,1.16-7.42,1.86-11.13,1.86-4.41,0-8.12-.93-11.14-1.86ZM636,263.26h-42.22c.23-.7.23-1.39.23-2.09h45.24c-1.16.46-2.32,1.16-3.25,2.09ZM593.78,270.22h41.29c.46.93,1.16,1.86,1.86,2.32h-42.92c-.23-.7-.23-1.39-.23-2.32ZM686.35,282.05h-90.25l-.7-2.55h91.64l-.7,2.55ZM596.33,251.9h89.55l.7,1.86h-90.94l.7-1.86ZM596.56,288.55h43.62l-1.16,2.78h-43.38l.93-2.78ZM682.63,244.47h-83.05c.46-.46.7-.93.93-1.62h81.2c.23.7.7,1.16.93,1.62ZM675.68,234.96h-69.13l1.39-1.39h66.35l1.39,1.39ZM639.02,385.29h-27.84v-.93c0-1.39-.7-3.02-1.62-4.18h29.23c0,1.39.23,2.78.23,4.18v.93ZM663.38,225.68h-44.78l2.32-1.16h40.37c.7.46,1.39.93,2.09,1.16ZM642.04,288.55h44.31l1.16,2.78h-44.54l-.93-2.78ZM642.97,261.18h45.24c0,.7.23,1.39.23,2.09h-42.22c-.7-.93-2.09-1.62-3.25-2.09ZM643.2,380.19h29c-.93,1.16-1.39,2.78-1.39,4.18v.93h-27.84v-.93c0-1.39,0-2.78.23-4.18ZM681.24,389.47h77.72c-.7,1.86-1.62,3.71-2.55,5.34h-111.82c-.7-1.62-1.16-3.48-1.39-5.34h29.93c1.16.93,2.55,1.39,4.18,1.39,1.39,0,2.79-.46,3.94-1.39ZM645.52,371.14h63.1v.23c0,1.86.7,3.48,1.86,4.64h-66.58c.46-1.62.93-3.25,1.62-4.87ZM688.44,272.54h-43.15c.93-.46,1.39-1.39,1.86-2.32h41.53c0,.93-.23,1.62-.23,2.32ZM645.28,297.83h44.54l1.16,3.02h-44.78l-.93-3.02ZM645.98,398.52h108.11c-1.39,2.09-3.02,3.94-4.64,5.57h-100.45c-1.16-1.62-2.09-3.48-3.02-5.57ZM651.32,361.86h110.43l.7,4.64h-42.92c-1.16-.93-2.78-1.62-4.41-1.62s-3.25.7-4.41,1.62h-62.87c1.16-1.62,2.09-3.02,3.48-4.64ZM648.3,306.88h45.01l1.16,3.25h-45.01l-1.16-3.25ZM651.55,316.16h45.01l1.39,3.48h-45.01l-1.39-3.48ZM652.01,407.8h93.49c-2.79,2.32-5.8,4.18-8.82,5.8h-77.49c-2.55-1.62-5.1-3.48-7.19-5.8ZM665.93,416.84h22.5c-3.02.93-6.73,1.86-11.14,1.86-3.94,0-7.66-.7-11.37-1.86ZM760.59,385.29h-76.79v-.93c0-1.39-.7-3.02-1.62-4.18h79.57c-.23,1.86-.7,3.48-1.16,5.1ZM701.66,416.84h26.68c-4.18,1.16-8.58,1.86-13.22,1.86-5.33,0-9.97-.93-13.46-1.86ZM762.44,376.01h-42.92c1.39-1.16,2.09-2.78,2.09-4.64v-.23h41.06v.23c0,1.62-.23,3.25-.23,4.64Z"/></svg>