<?xml version="1.0" encoding="UTF-8"?>
<svg id="Layer_1" xmlns="http://www.w3.org/2000/svg" version="1.1" viewBox="0 0 800 390">
  <!-- Generator: Adobe Illustrator 29.1.0, SVG Export Plug-In . SVG Version: 2.1.0 Build 142)  -->
  <defs>
    <style>
      .st0 {
        fill: #fff;
      }
    </style>
  </defs>
  <path class="st0" d="M29.3,6.4c0,5.1,3.8,8.2,10,8.2,13.5,0,23.8-10.7,36.9-10.7s26.9,10.4,26.9,23.5-9.1,19.5-9.1,29.1,3.3,10,15.1,11.1c20.4,2,29.5,10.9,29.5,28.9s-30.4,25.3-38.2,38.4c-2.9,4.9-1.6,12-1.6,16.4-.4,6.2-6.9,10.7-13.1,10.7-12.2,0-10.9-7.3-15.8-7.3-10.9,0-1.1,18.2-15.3,18.2H0V6.4h29.3,0ZM95.9,122.8c7.3,0,16-7.3,16-21.1s-4.7-20.4-24.4-21.3c-15.5-.9-17.3-8.4-17.3-17.5,0-16-2.4-31.3-21.5-31.3s-19.3,7.6-19.3,19.8v71.1c0,8.7,0,26.2,13.8,26.2,23.5,0,6-39.8,25.8-39.8s10,14,27.1,14h0Z"/>
  <path class="st0" d="M157.1,4.6h117.3v19.9h-97.2v52h89.8v19.9h-89.8v56.4h99.2v20.2h-119.4V4.6h0Z"/>
  <path class="st0" d="M292.4,124.8l20.2-4c4,24,19.3,36.3,44.6,36.3s41.4-11.6,41.4-28.2-13.2-24.6-45.5-34c-39.2-11.2-56-27.8-56-51.1S319,.5,354.2.5s54.9,15.7,61.8,45.7l-20.8,4.5c-4.5-20.2-17.9-30.2-41.4-30.2s-35.6,8.5-35.6,23.1,11.4,22.6,43.4,32.5c42.1,12.8,57.8,29.3,57.8,52.8s-24,48.4-61.1,48.4-60.2-18.4-65.8-52.4h0Z"/>
  <path class="st0" d="M447.5,4.6h20.6v168.4h-20.6V4.6Z"/>
  <path class="st0" d="M494.3,90.8c0-49.3,28.7-90.2,78.2-90.2s57.3,18.6,68.1,48.6l-19.9,4.5c-9-22.2-26.9-32.7-48.1-32.7-36.3,0-57.3,30.5-57.3,69.9s24.6,66.3,54.9,66.3,50.8-22.6,52.2-53.7h-47.2v-19.9h67.4v89.6h-17.7l-2.2-21.9c-11.2,16.1-30.5,26.2-53.5,26.2-44.1,0-74.6-35.6-74.6-86.4h0Z"/>
  <path class="st0" d="M669.5,4.6h21.5l88.9,133V4.6h20.2v168.4h-21.3l-89.1-133.7v133.7h-20.2V4.6h0Z"/>
  <path class="st0" d="M9.1,343.6c0-20.5,9-44.9,25.8-66.9-19-7-30.2-22-28.8-42.2,1.7-22.9,21.2-43.5,52.6-43.5s32.1,9.9,35.2,19.1c.3,1,.7,2.9,0,3.1-.3.2-.5-.9-1.2-2.2-5.1-9.7-16.6-15.9-34.1-15.9-29.4,0-48.8,18.1-50.4,39.3-1.4,19.5,11.6,31.4,30.2,37.4,3.2-4.1,7-8,10.9-11.9,32.3-33.1,86.9-59.1,135.2-57.7,14.7.3,33.1,4.6,33.1,24.6s-27.8,42.7-57.2,42.7-17.4-2.2-21.3-8.2c-14.2,10.9-39.4,21.7-71.4,21.7s-13.7-.9-18.4-1.9c-13.7,17.9-26.8,43.9-27.1,65.4-.5,27.7,14.3,41.3,39.4,41.3s36.2-10.6,50.5-25.1c11.8-11.8,17.4-26.8,17.7-36.7.5-11.4-5.5-22.5-21.5-22.5s-26.3,8.5-34.1,18.6c-8,10.2-10.8,20.3-9.6,27.1,1.4,7.9,7,11.4,13,11.6,4.6.2,8.7-1.4,11.8-3.4,1.9-1.4,2.6-2,2.7-1.9.5.3,0,1.4-2.2,3.1-3.1,2.2-7.5,4.3-12.6,4.1-7-.2-14.2-4.1-16-13-1.7-7.3,0-19.1,9.4-30.4,8.5-10.2,23-17.6,37.7-17.6s28.5,10.1,28.5,25.4-6.8,27.8-17.9,38.6c-15.5,15-38.6,23.9-58,23.9s-51.7-13-51.7-45.7v-.2h0ZM68.5,276.2c30,0,55-8.7,69.1-17.6-.5-1.4-.7-2.9-.7-4.4,0-7.5,7.2-13.8,11.8-13.8s3.8,1.7,3.2,4.6c-.9,4.4-3.9,8.9-11.3,14.7,2.9,4.3,8.9,5.8,14.7,5.8,26.1,0,58.7-23.4,58.7-41.3s-16.9-20.3-29.7-20.3c-46.9,0-92.4,30-121.9,61.3-2.7,2.9-5.8,6.1-8.9,10.1,4.8.7,9.7,1,14.7,1h.2,0ZM148.2,242.2c-3.4,0-8.7,4.3-9.2,11.1-.2,1.5.2,3.2.5,4.3,6.5-4.4,10.1-9,10.8-12.6.3-1.9-.7-2.7-1.9-2.7h-.2Z"/>
  <path class="st0" d="M234.3,209.2h20.4v148.2h97v20.2h-117.3v-168.4h0Z"/>
  <path class="st0" d="M377.4,209.2h20.6v168.4h-20.6v-168.4Z"/>
  <path class="st0" d="M427.6,209.2h21.5l88.9,133v-133h20.2v168.4h-21.3l-89.1-133.7v133.7h-20.2v-168.4Z"/>
  <path class="st0" d="M587.7,209.2h20.6v168.4h-20.6v-168.4Z"/>
  <path class="st0" d="M633.8,295.6c0-51.7,36.5-90.5,85.5-90.5s60.7,17.9,73.9,48.1l-21.3,4.7c-10.3-20.4-29.3-32.2-53.1-32.2-37.2,0-63.4,29.1-63.4,69s25.3,66.7,61.1,66.7,47.5-15,57.3-39.6l20.2,4.5c-13,35.2-40.3,55.5-77.3,55.5s-83.1-35.4-83.1-86.2h0Z"/>
</svg>