<?xml version="1.0" encoding="UTF-8"?>
<svg id="Layer_1" xmlns="http://www.w3.org/2000/svg" version="1.1" viewBox="0 0 1500 182">
  <!-- Generator: Adobe Illustrator 29.1.0, SVG Export Plug-In . SVG Version: 2.1.0 Build 142)  -->
  <defs>
    <style>
      .st0 {
        fill: #fff;
      }
    </style>
  </defs>
  <path class="st0" d="M26.6,19.1c0,4.6,3.4,7.4,9.1,7.4,12.3,0,21.5-9.7,33.4-9.7s24.4,9.5,24.4,21.3-8.3,17.7-8.3,26.4,3,9.1,13.7,10.1c18.5,1.8,26.8,9.9,26.8,26.2s-27.6,23-34.6,34.8c-2.6,4.4-1.4,10.9-1.4,14.9-.4,5.6-6.2,9.7-11.9,9.7-11.1,0-9.9-6.7-14.3-6.7-9.9,0-1,16.5-13.9,16.5H0V19.1h26.6,0ZM87,124.7c6.7,0,14.5-6.7,14.5-19.1s-4.2-18.5-22.2-19.3c-14.1-.8-15.7-7.7-15.7-15.9,0-14.5-2.2-28.4-19.5-28.4s-17.5,6.8-17.5,17.9v64.5c0,7.9,0,23.8,12.5,23.8,21.3,0,5.4-36.1,23.4-36.1s9.1,12.7,24.6,12.7h0Z"/>
  <path class="st0" d="M142.5,17.5h106.4v18.1h-88.1v47.1h81.4v18.1h-81.4v51.2h90v18.3h-108.2V17.5h0Z"/>
  <path class="st0" d="M265.2,126.5l18.3-3.7c3.7,21.7,17.5,32.9,40.4,32.9s37.6-10.6,37.6-25.6-12-22.3-41.2-30.9c-35.5-10.2-50.8-25.2-50.8-46.3s19.9-39.2,51.8-39.2,49.8,14.2,56.1,41.4l-18.9,4.1c-4.1-18.3-16.2-27.4-37.6-27.4s-32.3,7.7-32.3,20.9,10.4,20.5,39.4,29.4c38.2,11.6,52.4,26.6,52.4,47.9s-21.7,43.9-55.4,43.9-54.6-16.7-59.7-47.5h0Z"/>
  <path class="st0" d="M405.9,17.5h18.7v152.7h-18.7V17.5h0Z"/>
  <path class="st0" d="M448.3,95.7c0-44.7,26-81.8,70.9-81.8s52,16.9,61.7,44.1l-18.1,4.1c-8.1-20.1-24.4-29.6-43.7-29.6-32.9,0-52,27.6-52,63.4s22.3,60.1,49.8,60.1,46.1-20.5,47.3-48.7h-42.8v-18.1h61.1v81.2h-16l-2-19.9c-10.2,14.6-27.6,23.8-48.5,23.8-40,0-67.6-32.3-67.6-78.4h0Z"/>
  <path class="st0" d="M607.1,17.5h19.5l80.6,120.6V17.5h18.3v152.7h-19.3l-80.8-121.2v121.2h-18.3V17.5h0Z"/>
  <path class="st0" d="M791.9,139.4c0-18.6,8.2-40.7,23.4-60.7-17.2-6.4-27.4-20-26.2-38.2,1.5-20.7,19.2-39.5,47.7-39.5s29.1,9,31.9,17.3c.3.9.6,2.6,0,2.8-.3.2-.5-.8-1.1-2-4.6-8.8-15-14.4-31-14.4-26.6,0-44.3,16.4-45.7,35.6-1.2,17.6,10.5,28.5,27.4,33.9,2.9-3.7,6.4-7.3,9.9-10.8,29.3-30,78.8-53.6,122.6-52.3,13.3.3,30,4.2,30,22.3s-25.2,38.7-51.9,38.7-15.8-2-19.4-7.4c-12.9,9.9-35.8,19.7-64.7,19.7s-12.4-.8-16.7-1.7c-12.4,16.3-24.3,39.8-24.6,59.3-.5,25.1,13,37.5,35.8,37.5s32.8-9.6,45.8-22.8c10.7-10.7,15.8-24.3,16.1-33.3.5-10.4-5-20.4-19.5-20.4s-23.8,7.7-31,16.9c-7.3,9.3-9.8,18.4-8.7,24.6,1.2,7.1,6.4,10.4,11.8,10.5,4.2.2,7.9-1.2,10.7-3.1,1.7-1.2,2.3-1.9,2.5-1.7.5.3,0,1.2-2,2.8-2.8,2-6.8,3.9-11.5,3.7-6.4-.2-12.9-3.7-14.5-11.8-1.5-6.7,0-17.3,8.5-27.6,7.7-9.3,20.9-15.9,34.2-15.9s25.9,9.1,25.9,23.1-6.2,25.2-16.3,35c-14.1,13.6-35,21.7-52.6,21.7s-46.9-11.8-46.9-41.5v-.2h0ZM845.8,78.2c27.2,0,49.8-7.9,62.7-15.9-.5-1.2-.6-2.6-.6-4,0-6.8,6.5-12.5,10.7-12.5s3.4,1.5,2.9,4.2c-.8,4-3.6,8-10.2,13.3,2.6,3.9,8,5.3,13.3,5.3,23.7,0,53.3-21.2,53.3-37.5s-15.3-18.4-26.9-18.4c-42.6,0-83.8,27.2-110.5,55.6-2.5,2.6-5.3,5.6-8,9.1,4.3.6,8.8.9,13.3.9h.2,0ZM918,47.4c-3.1,0-7.9,3.9-8.4,10.1-.2,1.4.2,2.9.5,3.9,5.9-4,9.1-8.2,9.8-11.5.3-1.7-.6-2.5-1.7-2.5h-.2Z"/>
  <path class="st0" d="M996.2,17.5h18.5v134.4h87.9v18.3h-106.4V17.5h0Z"/>
  <path class="st0" d="M1123.5,17.5h18.7v152.7h-18.7V17.5h0Z"/>
  <path class="st0" d="M1169,17.5h19.5l80.6,120.6V17.5h18.3v152.7h-19.3l-80.8-121.2v121.2h-18.3V17.5h0Z"/>
  <path class="st0" d="M1314.2,17.5h18.7v152.7h-18.7V17.5h0Z"/>
  <path class="st0" d="M1354.6,95.9c0-46.9,33.1-82,77.6-82s55,16.2,67,43.7l-19.3,4.3c-9.3-18.5-26.6-29.2-48.1-29.2-33.7,0-57.5,26.4-57.5,62.5s22.9,60.5,55.4,60.5,43.1-13.6,52-35.9l18.3,4.1c-11.8,31.9-36.6,50.4-70.1,50.4s-75.3-32.1-75.3-78.2h0Z"/>
</svg>